<svg id="Warstwa_1" data-name="Warstwa 1" xmlns="http://www.w3.org/2000/svg" viewBox="0 0 419.85 149.54"><defs><style>.cls-1{fill:#201751;}.cls-2{fill:#00a0df;}</style></defs><title>IZFiA_logo_20lat</title><rect class="cls-1" x="37.46" y="37.79" width="11.98" height="74.08"/><polygon class="cls-1" points="115.91 37.8 66.45 37.8 66.45 49.11 96.14 49.11 60.23 111.87 114.76 111.87 114.76 100.56 80 100.56 115.91 37.8"/><polygon class="cls-2" points="164.16 49.11 164.16 37.8 126.7 37.8 126.7 111.87 138.68 111.87 138.68 77.06 163.26 77.06 163.26 65.74 138.68 65.74 138.68 49.11 164.16 49.11"/><path class="cls-2" d="M187.92,40a7.38,7.38,0,0,0-10.47,0,7.09,7.09,0,0,0-2.18,5.16,7.27,7.27,0,0,0,2.18,5.31,7.19,7.19,0,0,0,5.26,2.17,7,7,0,0,0,5.21-2.17,7.19,7.19,0,0,0,2.17-5.26A7,7,0,0,0,187.92,40"/><polygon class="cls-2" points="188.48 65.75 176.88 65.75 176.88 99.75 188.48 74.83 188.48 65.75"/><polygon class="cls-2" points="244.79 99.09 258.89 68.86 247.55 68.86 239.23 86.78 217.09 37.86 182.68 111.87 193.9 111.87 201.71 94.96 219.21 94.96 214.83 85.08 206.08 85.08 206.09 85.08 216.91 61.41 227.24 85.08 231.52 94.96 233.41 99.33 233.38 99.39 238.82 111.87 238.82 111.87 238.82 111.87 244.79 99.09"/><path class="cls-1" d="M319.89,99.51c-.51-.58-1-1.17-1.48-1.78H303.49l16.4-16.4.6-.59a24.4,24.4,0,0,0,2.71-3.6A23.81,23.81,0,0,0,325,73.83a23.56,23.56,0,0,0,.93-2.64,22.94,22.94,0,0,0,.58-2.64c.09-.49.14-1,.2-1.5a20.86,20.86,0,0,0,.15-2.39,23.57,23.57,0,0,0-4.14-13.37A21.78,21.78,0,0,0,320.89,49c-.32-.36-.66-.68-1-1a23.66,23.66,0,0,0-40.43,16.66c0,.55.05,1.08.09,1.63h11.39a12.64,12.64,0,0,1-.12-1.63,11.84,11.84,0,1,1,23.67,0A11.58,11.58,0,0,1,314,68a11.83,11.83,0,0,1-3.44,5.49v.11l-.29.28-35.55,35.55h59.06A37.4,37.4,0,0,1,319.89,99.51Z"/><polygon class="cls-2" points="336.58 70.6 336.58 79.76 342.57 79.76 342.57 77.95 338.65 77.95 338.65 70.6 336.58 70.6"/><path class="cls-2" d="M347,70.6l-4,9.16h2.13l.72-1.78h4.24l.71,1.78H353l-3.92-9.16Zm-.44,5.72L348,72.76l1.44,3.56Z"/><polygon class="cls-2" points="357.18 79.76 357.18 72.35 359.97 72.35 359.97 70.6 352.32 70.6 352.32 72.35 355.11 72.35 355.11 79.76 357.18 79.76"/><path class="cls-2" d="M382.28,73.83A34.43,34.43,0,0,0,324.9,49.12a26.53,26.53,0,0,1,4.85,12.71,22.53,22.53,0,0,1,9.87-7.73,22.24,22.24,0,0,1,30.5,19.73c0,.33.05.65.05,1a22.29,22.29,0,0,1-43.92,5.39c-.05-.21-.12-.42-.16-.63l-6.2,6.19-3.37,3.37a35.15,35.15,0,0,0,3.37,5.76,32.87,32.87,0,0,0,2.26,2.85A34.46,34.46,0,0,0,382.33,74.8C382.33,74.48,382.29,74.16,382.28,73.83Z"/></svg>